<svg id="little-invest" xmlns="http://www.w3.org/2000/svg" width="129.923" height="26" viewBox="0 0 129.923 26">
  <path id="Path_318" data-name="Path 318" d="M36.923,20.316a2.431,2.431,0,0,1-1.851-.63,2.492,2.492,0,0,1-.592-1.775V6.194h2.443V18.37h1.317v1.947ZM41.312,8.9a1.483,1.483,0,0,1-1.1-.344,1.207,1.207,0,0,1-.334-.878V7.3a1.207,1.207,0,0,1,.334-.878,1.909,1.909,0,0,1,2.185,0,1.189,1.189,0,0,1,.344.878v.382a1.189,1.189,0,0,1-.344.878,1.488,1.488,0,0,1-1.088.344Zm-1.221,1.45h2.443v9.962H40.09Zm8.378,9.962a2.6,2.6,0,0,1-1.918-.658,2.543,2.543,0,0,1-.658-1.88V12.3H44.422V10.354h.763a.911.911,0,0,0,.754-.258,1.247,1.247,0,0,0,.2-.773v-1.7h2.195v2.729h2.042V12.3H48.335V18.37h1.889v1.947Zm7.023,0a2.6,2.6,0,0,1-1.918-.658,2.543,2.543,0,0,1-.658-1.88V12.3H51.445V10.354h.763a.911.911,0,0,0,.754-.258,1.247,1.247,0,0,0,.2-.773v-1.7h2.195v2.729H57.4V12.3H55.358V18.37h1.889v1.947Zm6.469,0a2.431,2.431,0,0,1-1.851-.63,2.492,2.492,0,0,1-.592-1.775V6.194h2.443V18.37h1.317v1.947Zm7.195.229a4.971,4.971,0,0,1-1.975-.372,4.089,4.089,0,0,1-1.469-1.05,4.7,4.7,0,0,1-.926-1.641,6.766,6.766,0,0,1-.324-2.166,6.8,6.8,0,0,1,.315-2.137,4.676,4.676,0,0,1,.906-1.632,4.017,4.017,0,0,1,1.45-1.05,4.851,4.851,0,0,1,1.947-.372,4.743,4.743,0,0,1,2.023.4,3.9,3.9,0,0,1,1.412,1.088,4.7,4.7,0,0,1,.83,1.594,6.6,6.6,0,0,1,.277,1.937v.8H67v.248a2.466,2.466,0,0,0,.611,1.746,2.354,2.354,0,0,0,1.813.658,2.684,2.684,0,0,0,1.5-.382,4.294,4.294,0,0,0,1.04-.973l1.317,1.469a4.094,4.094,0,0,1-1.67,1.345A5.82,5.82,0,0,1,69.155,20.545Zm-.038-8.588a1.957,1.957,0,0,0-1.546.649A2.445,2.445,0,0,0,67,14.286v.153h4.084v-.172a2.613,2.613,0,0,0-.506-1.67A1.751,1.751,0,0,0,69.117,11.958ZM81.5,8.9a1.483,1.483,0,0,1-1.1-.344,1.207,1.207,0,0,1-.334-.878V7.3a1.207,1.207,0,0,1,.334-.878,1.909,1.909,0,0,1,2.185,0,1.189,1.189,0,0,1,.344.878v.382a1.189,1.189,0,0,1-.344.878A1.488,1.488,0,0,1,81.5,8.9Zm-1.221,1.45h2.443v9.962H80.281Zm5.267,9.962V10.354h2.443v1.66h.1a3.188,3.188,0,0,1,.964-1.345,2.781,2.781,0,0,1,1.823-.544,2.87,2.87,0,0,1,2.366,1.011,4.468,4.468,0,0,1,.821,2.882v6.3H91.617v-6.05a2.76,2.76,0,0,0-.382-1.6,1.441,1.441,0,0,0-1.26-.534,2.565,2.565,0,0,0-.735.1,2.07,2.07,0,0,0-.63.305,1.594,1.594,0,0,0-.448.5,1.363,1.363,0,0,0-.172.7v6.584Zm13.206,0-3.321-9.962h2.4l1.393,4.294.973,3.55h.134l.973-3.55,1.355-4.294h2.328l-3.34,9.962Zm11.737.229a4.971,4.971,0,0,1-1.975-.372,4.089,4.089,0,0,1-1.469-1.05,4.7,4.7,0,0,1-.926-1.641,6.766,6.766,0,0,1-.324-2.166,6.8,6.8,0,0,1,.315-2.137,4.676,4.676,0,0,1,.906-1.632,4.017,4.017,0,0,1,1.45-1.05,4.851,4.851,0,0,1,1.947-.372,4.743,4.743,0,0,1,2.023.4,3.9,3.9,0,0,1,1.412,1.088,4.7,4.7,0,0,1,.83,1.594,6.6,6.6,0,0,1,.277,1.937v.8h-6.622v.248a2.466,2.466,0,0,0,.611,1.746,2.354,2.354,0,0,0,1.813.658,2.684,2.684,0,0,0,1.5-.382,4.294,4.294,0,0,0,1.04-.973l1.317,1.469a4.094,4.094,0,0,1-1.67,1.345A5.821,5.821,0,0,1,110.491,20.545Zm-.038-8.588a1.957,1.957,0,0,0-1.546.649,2.445,2.445,0,0,0-.573,1.679v.153h4.084v-.172a2.613,2.613,0,0,0-.506-1.67A1.751,1.751,0,0,0,110.453,11.958Zm9.924,8.588a5.343,5.343,0,0,1-2.4-.487,5.535,5.535,0,0,1-1.718-1.345l1.489-1.45a4.52,4.52,0,0,0,1.212.992,3.094,3.094,0,0,0,1.517.363,2.079,2.079,0,0,0,1.269-.305,1.007,1.007,0,0,0,.391-.84.906.906,0,0,0-.277-.7,1.757,1.757,0,0,0-.945-.353l-.992-.134a4.721,4.721,0,0,1-2.471-.926,2.576,2.576,0,0,1-.849-2.09,3.1,3.1,0,0,1,.267-1.307,2.774,2.774,0,0,1,.763-.992,3.5,3.5,0,0,1,1.193-.63,5.162,5.162,0,0,1,1.555-.219,7.081,7.081,0,0,1,1.288.1,4.683,4.683,0,0,1,1.021.305,3.946,3.946,0,0,1,.84.5,7.883,7.883,0,0,1,.744.658l-1.431,1.431a3.779,3.779,0,0,0-1.05-.763,2.945,2.945,0,0,0-1.336-.305,1.841,1.841,0,0,0-1.155.286.913.913,0,0,0-.353.744.946.946,0,0,0,.3.754,2.048,2.048,0,0,0,1,.372l1.011.134q3.225.458,3.225,2.939a2.963,2.963,0,0,1-.3,1.326,3.02,3.02,0,0,1-.83,1.031,3.922,3.922,0,0,1-1.288.668A5.584,5.584,0,0,1,120.376,20.545Zm9.218-.229a2.6,2.6,0,0,1-1.918-.658,2.543,2.543,0,0,1-.658-1.88V12.3h-1.469V10.354h.763a.911.911,0,0,0,.754-.258,1.246,1.246,0,0,0,.2-.773v-1.7h2.195v2.729H131.5V12.3H129.46V18.37h1.889v1.947Z" transform="translate(-1.579 -0.278)"/>
  <g id="Rectangle_2" data-name="Rectangle 2" fill="none" stroke="#000" stroke-width="2">
    <rect width="23" height="26" rx="4" stroke="none"/>
    <rect x="1" y="1" width="21" height="24" rx="3" fill="none"/>
  </g>
  <path id="Path_1" data-name="Path 1" d="M11.16,21.45V19.809A5.574,5.574,0,0,1,8.718,19.1,6.758,6.758,0,0,1,7,17.653l1.393-1.26a5.361,5.361,0,0,0,1.288,1.164,3.887,3.887,0,0,0,1.613.553V13.836A6.073,6.073,0,0,1,8.317,12.51,3.107,3.107,0,0,1,7.4,10.172,3.076,3.076,0,0,1,8.412,7.748,4.823,4.823,0,0,1,11.16,6.66V5h1.622V6.66a5.447,5.447,0,0,1,2.128.611,5.065,5.065,0,0,1,1.574,1.355L15.072,9.79a3.855,3.855,0,0,0-1-.926,3.671,3.671,0,0,0-1.4-.506v3.912l.076.019a11.85,11.85,0,0,1,1.794.592,4.341,4.341,0,0,1,1.212.754,2.541,2.541,0,0,1,.677.992,3.732,3.732,0,0,1,.21,1.307,3.549,3.549,0,0,1-1,2.576,4.631,4.631,0,0,1-2.853,1.26V21.45Zm3.473-5.382a1.718,1.718,0,0,0-.42-1.193,3.111,3.111,0,0,0-1.546-.754v3.969a2.51,2.51,0,0,0,1.45-.687,1.848,1.848,0,0,0,.515-1.336ZM9.385,10.076a1.527,1.527,0,0,0,.468,1.212,3.664,3.664,0,0,0,1.441.677V8.34a2.672,2.672,0,0,0-1.412.573A1.478,1.478,0,0,0,9.385,10.076Z" transform="translate(-0.321 -0.229)"/>
</svg>
