<svg xmlns="http://www.w3.org/2000/svg" xmlns:xlink="http://www.w3.org/1999/xlink" width="470" height="330" viewBox="0 0 470 330">
  <defs>
    <clipPath id="clip-path">
      <rect id="Retângulo_3" data-name="Retângulo 3" width="470" height="330" transform="translate(655 130)" fill="#fff" stroke="#707070" stroke-width="1"/>
    </clipPath>
  </defs>
  <g id="Grupo_de_máscara_1" data-name="Grupo de máscara 1" transform="translate(-655 -130)" clip-path="url(#clip-path)">
    <g id="notre-dame" transform="translate(662.844 67.837)">
      <path id="Caminho_1" data-name="Caminho 1" d="M408.881,243.875A181.725,181.725,0,1,0,61.6,318.837h331.1a181.178,181.178,0,0,0,16.174-74.962Z" fill="#f0f2ff"/>
      <line id="Linha_1" data-name="Linha 1" x2="354.364" transform="translate(49.974 318.837)" fill="none" stroke="#4550e5" stroke-linecap="round" stroke-linejoin="round" stroke-width="4.543"/>
      <line id="Linha_2" data-name="Linha 2" x2="11.358" transform="translate(29.53 318.837)" fill="none" stroke="#4550e5" stroke-linecap="round" stroke-linejoin="round" stroke-width="4.543"/>
      <line id="Linha_3" data-name="Linha 3" x2="11.358" transform="translate(413.425 318.837)" fill="none" stroke="#4550e5" stroke-linecap="round" stroke-linejoin="round" stroke-width="4.543"/>
      <path id="Caminho_2" data-name="Caminho 2" d="M291.351,198.126l16.31,29.894a22.715,22.715,0,0,1,2.771,10.9v54.518l3.68,3.725a9.086,9.086,0,0,1,2.68,6.406v15.31H291.351Z" fill="#d6daff" stroke="#4550e5" stroke-linecap="round" stroke-linejoin="round" stroke-width="4.543"/>
      <line id="Linha_4" data-name="Linha 4" x2="15.901" transform="translate(297.711 283.991)" fill="none" stroke="#4550e5" stroke-linecap="round" stroke-linejoin="round" stroke-width="4.543"/>
      <path id="Caminho_3" data-name="Caminho 3" d="M125.981,198.126l-16.31,29.894a22.716,22.716,0,0,0-2.771,10.9v54.518l-3.725,3.725a9.086,9.086,0,0,0-2.635,6.406v15.31h25.442Z" fill="#d6daff" stroke="#4550e5" stroke-linecap="round" stroke-linejoin="round" stroke-width="4.543"/>
      <path id="Caminho_4" data-name="Caminho 4" d="M358.907,101.539a6.951,6.951,0,0,0-2.726.545,12.675,12.675,0,0,0-25.078,0,6.951,6.951,0,0,0-2.726-.545,7.632,7.632,0,0,0,0,15.265h30.53a7.632,7.632,0,0,0,0-15.265Z" fill="#fff"/>
      <path id="Caminho_5" data-name="Caminho 5" d="M358.907,101.539a6.951,6.951,0,0,0-2.726.545,12.675,12.675,0,0,0-25.078,0,6.951,6.951,0,0,0-2.726-.545,7.632,7.632,0,0,0,0,15.265h30.53a7.632,7.632,0,0,0,0-15.265Z" fill="none" stroke="#4550e5" stroke-linejoin="round" stroke-width="4.543"/>
      <path id="Caminho_6" data-name="Caminho 6" d="M240.468,77.279v79.5h-63.6v-79.5H119.621V283.991l3.18,3.18v12.721l-3.18,3.18v15.9H297.711V299.892l-3.18-3.18v-9.541l3.18-3.18V77.279Z" fill="#fff"/>
      <path id="Caminho_7" data-name="Caminho 7" d="M358.907,101.539a6.951,6.951,0,0,0-2.726.545,12.675,12.675,0,0,0-25.078,0,6.951,6.951,0,0,0-2.726-.545,7.632,7.632,0,0,0,0,15.265h30.53a7.632,7.632,0,0,0,0-15.265Z" fill="none" stroke="#4550e5" stroke-linejoin="round" stroke-width="4.543"/>
      <path id="Caminho_8" data-name="Caminho 8" d="M240.468,77.279v79.5h-63.6v-79.5H119.621V283.991l3.18,3.18v12.721l-3.18,3.18v15.9H297.711V299.892l-3.18-3.18v-9.541l3.18-3.18V77.279Z" fill="none" stroke="#4550e5" stroke-linecap="round" stroke-linejoin="round" stroke-width="4.543"/>
      <rect id="Retângulo_4" data-name="Retângulo 4" width="178.091" height="19.081" transform="translate(119.621 239.468)" stroke-width="4.543" stroke="#4550e5" stroke-linecap="round" stroke-linejoin="round" fill="#d6daff"/>
      <path id="Caminho_9" data-name="Caminho 9" d="M301.118,156.783H116.168a1.59,1.59,0,0,0-1.318,2.453h0a28.258,28.258,0,0,1,4.543,15.628v7.36H297.484v-7.36a28.213,28.213,0,0,1,4.543-15.628h0a1.59,1.59,0,0,0-.909-2.453Z" fill="#d6daff" stroke="#4550e5" stroke-linecap="round" stroke-linejoin="round" stroke-width="4.543"/>
      <path id="Caminho_10" data-name="Caminho 10" d="M208.666,271.27h0a25.305,25.305,0,0,0-15.9,23.488v24.215h31.8V294.758a25.4,25.4,0,0,0-15.9-23.488Z" fill="#d6daff" stroke="#4550e5" stroke-linecap="round" stroke-linejoin="round" stroke-width="4.543"/>
      <path id="Caminho_11" data-name="Caminho 11" d="M148.242,277.631h0a25.9,25.9,0,0,0-12.721,23.488v17.855h25.442V301.118a25.987,25.987,0,0,0-12.721-23.488Z" fill="#d6daff" stroke="#4550e5" stroke-linecap="round" stroke-linejoin="round" stroke-width="4.543"/>
      <path id="Caminho_12" data-name="Caminho 12" d="M148.242,198.126h0a25.9,25.9,0,0,0-12.721,23.488v17.854h25.442V221.614A25.987,25.987,0,0,0,148.242,198.126Z" fill="#d6daff" stroke="#4550e5" stroke-linecap="round" stroke-linejoin="round" stroke-width="4.543"/>
      <path id="Caminho_13" data-name="Caminho 13" d="M269.089,198.126h0a25.9,25.9,0,0,0-12.721,23.488v17.854h25.305V221.614a25.987,25.987,0,0,0-12.584-23.488Z" fill="#d6daff" stroke="#4550e5" stroke-linecap="round" stroke-linejoin="round" stroke-width="4.543"/>
      <path id="Caminho_14" data-name="Caminho 14" d="M269.089,277.631h0a25.9,25.9,0,0,0-12.721,23.488v17.854h25.305V301.118a25.987,25.987,0,0,0-12.584-23.488Z" fill="#d6daff" stroke="#4550e5" stroke-linecap="round" stroke-linejoin="round" stroke-width="4.543"/>
      <line id="Linha_5" data-name="Linha 5" y2="41.342" transform="translate(176.864 239.468)" fill="none" stroke="#4550e5" stroke-linecap="round" stroke-linejoin="round" stroke-width="4.543"/>
      <line id="Linha_6" data-name="Linha 6" y2="41.342" transform="translate(240.468 239.468)" fill="none" stroke="#4550e5" stroke-linecap="round" stroke-linejoin="round" stroke-width="4.543"/>
      <line id="Linha_7" data-name="Linha 7" y2="15.901" transform="translate(176.864 182.225)" fill="none" stroke="#4550e5" stroke-linecap="round" stroke-linejoin="round" stroke-width="4.543"/>
      <line id="Linha_8" data-name="Linha 8" y2="15.901" transform="translate(240.468 182.225)" fill="none" stroke="#4550e5" stroke-linecap="round" stroke-linejoin="round" stroke-width="4.543"/>
      <path id="Caminho_15" data-name="Caminho 15" d="M208.666,191.765h0a25.442,25.442,0,0,0-25.442,25.441v22.261h50.883V217.207A25.442,25.442,0,0,0,208.666,191.765Z" fill="#d6daff" stroke="#4550e5" stroke-linecap="round" stroke-linejoin="round" stroke-width="4.543"/>
      <circle id="Elipse_1" data-name="Elipse 1" cx="15.901" cy="15.901" r="15.901" transform="translate(192.765 201.306)" fill="#d6daff"/>
      <path id="Caminho_16" data-name="Caminho 16" d="M220.024,206.167a15.674,15.674,0,0,0-11.358-4.861,15.856,15.856,0,0,0-4.543,31.12Z" fill="#fff"/>
      <circle id="Elipse_2" data-name="Elipse 2" cx="15.901" cy="15.901" r="15.901" transform="translate(192.765 201.306)" stroke-width="4.543" stroke="#4550e5" stroke-linecap="round" stroke-linejoin="round" fill="none"/>
      <line id="Linha_9" data-name="Linha 9" y2="6.36" transform="translate(176.864 290.351)" fill="none" stroke="#4550e5" stroke-linecap="round" stroke-linejoin="round" stroke-width="4.543"/>
      <line id="Linha_10" data-name="Linha 10" y2="6.36" transform="translate(240.468 290.351)" fill="none" stroke="#4550e5" stroke-linecap="round" stroke-linejoin="round" stroke-width="4.543"/>
      <line id="Linha_11" data-name="Linha 11" y1="19.081" transform="translate(148.242 239.468)" fill="none" stroke="#4550e5" stroke-linecap="round" stroke-linejoin="round" stroke-width="4.543"/>
      <line id="Linha_12" data-name="Linha 12" y1="9.541" transform="translate(132.341 249.009)" fill="none" stroke="#4550e5" stroke-linecap="round" stroke-linejoin="round" stroke-width="4.543"/>
      <line id="Linha_13" data-name="Linha 13" y1="9.541" transform="translate(164.143 249.009)" fill="none" stroke="#4550e5" stroke-linecap="round" stroke-linejoin="round" stroke-width="4.543"/>
      <line id="Linha_14" data-name="Linha 14" y1="19.081" transform="translate(208.666 239.468)" fill="none" stroke="#4550e5" stroke-linecap="round" stroke-linejoin="round" stroke-width="4.543"/>
      <line id="Linha_15" data-name="Linha 15" y1="9.541" transform="translate(192.765 249.009)" fill="none" stroke="#4550e5" stroke-linecap="round" stroke-linejoin="round" stroke-width="4.543"/>
      <line id="Linha_16" data-name="Linha 16" y1="9.541" transform="translate(224.567 249.009)" fill="none" stroke="#4550e5" stroke-linecap="round" stroke-linejoin="round" stroke-width="4.543"/>
      <line id="Linha_17" data-name="Linha 17" y1="19.081" transform="translate(269.089 239.468)" fill="none" stroke="#4550e5" stroke-linecap="round" stroke-linejoin="round" stroke-width="4.543"/>
      <line id="Linha_18" data-name="Linha 18" y1="9.541" transform="translate(253.189 249.009)" fill="none" stroke="#4550e5" stroke-linecap="round" stroke-linejoin="round" stroke-width="4.543"/>
      <line id="Linha_19" data-name="Linha 19" y1="9.541" transform="translate(284.99 249.009)" fill="none" stroke="#4550e5" stroke-linecap="round" stroke-linejoin="round" stroke-width="4.543"/>
      <path id="Caminho_17" data-name="Caminho 17" d="M144.608,162.689l-2.726-2.726-2.726,2.726a12.357,12.357,0,0,0-3.635,8.814v10.722h12.721V171.5a12.539,12.539,0,0,0-3.635-8.814Z" fill="#fff" stroke="#4550e5" stroke-linecap="round" stroke-linejoin="round" stroke-width="4.543"/>
      <path id="Caminho_18" data-name="Caminho 18" d="M178,162.689l-2.726-2.726-2.726,2.726a12.357,12.357,0,0,0-3.635,8.814v10.722h12.812V171.5A12.539,12.539,0,0,0,178,162.689Z" fill="#fff" stroke="#4550e5" stroke-linecap="round" stroke-linejoin="round" stroke-width="4.543"/>
      <path id="Caminho_19" data-name="Caminho 19" d="M211.392,162.689l-2.726-2.726-2.726,2.726a12.357,12.357,0,0,0-3.634,8.814v10.722h12.721V171.5A12.539,12.539,0,0,0,211.392,162.689Z" fill="#fff" stroke="#4550e5" stroke-linecap="round" stroke-linejoin="round" stroke-width="4.543"/>
      <path id="Caminho_20" data-name="Caminho 20" d="M244.784,162.689l-2.726-2.726-2.726,2.726A12.357,12.357,0,0,0,235.7,171.5v10.722h12.721V171.5A12.539,12.539,0,0,0,244.784,162.689Z" fill="#fff" stroke="#4550e5" stroke-linecap="round" stroke-linejoin="round" stroke-width="4.543"/>
      <path id="Caminho_21" data-name="Caminho 21" d="M272.588,162.689l2.726-2.726,2.726,2.726a12.539,12.539,0,0,1,3.634,8.814v10.722H268.953V171.5a12.357,12.357,0,0,1,3.635-8.814Z" fill="#fff" stroke="#4550e5" stroke-linecap="round" stroke-linejoin="round" stroke-width="4.543"/>
      <line id="Linha_20" data-name="Linha 20" y2="6.36" transform="translate(160.963 156.783)" fill="none" stroke="#4550e5" stroke-linecap="round" stroke-linejoin="round" stroke-width="4.543"/>
      <line id="Linha_21" data-name="Linha 21" y2="6.36" transform="translate(129.161 156.783)" fill="none" stroke="#4550e5" stroke-linecap="round" stroke-linejoin="round" stroke-width="4.543"/>
      <line id="Linha_22" data-name="Linha 22" y2="6.36" transform="translate(192.765 156.783)" fill="none" stroke="#4550e5" stroke-linecap="round" stroke-linejoin="round" stroke-width="4.543"/>
      <line id="Linha_23" data-name="Linha 23" y2="6.36" transform="translate(224.567 156.783)" fill="none" stroke="#4550e5" stroke-linecap="round" stroke-linejoin="round" stroke-width="4.543"/>
      <line id="Linha_24" data-name="Linha 24" y2="6.36" transform="translate(256.369 156.783)" fill="none" stroke="#4550e5" stroke-linecap="round" stroke-linejoin="round" stroke-width="4.543"/>
      <line id="Linha_25" data-name="Linha 25" y2="6.36" transform="translate(288.171 156.783)" fill="none" stroke="#4550e5" stroke-linecap="round" stroke-linejoin="round" stroke-width="4.543"/>
      <path id="Caminho_22" data-name="Caminho 22" d="M206.894,296.712h3.635a4.543,4.543,0,0,1,4.543,4.543v17.718H202.351V301.255A4.543,4.543,0,0,1,206.894,296.712Z" fill="#d6daff"/>
      <path id="Caminho_23" data-name="Caminho 23" d="M210.529,296.712h-3.635a4.543,4.543,0,0,0-4.543,4.543v17.718h.909l11.54-19.127A4.543,4.543,0,0,0,210.529,296.712Z" fill="#fff"/>
      <path id="Caminho_24" data-name="Caminho 24" d="M206.894,296.712h3.635a4.543,4.543,0,0,1,4.543,4.543v17.718H202.351V301.255A4.543,4.543,0,0,1,206.894,296.712Z" fill="none" stroke="#4550e5" stroke-linecap="round" stroke-linejoin="round" stroke-width="4.543"/>
      <path id="Caminho_25" data-name="Caminho 25" d="M135.521,102.72h0a21.716,21.716,0,0,0-6.36,15.4v38.707h12.721V118.121A21.943,21.943,0,0,0,135.521,102.72Z" fill="#d6daff"/>
      <path id="Caminho_26" data-name="Caminho 26" d="M141.882,124.073v-5.951a21.943,21.943,0,0,0-6.36-15.356h0a21.716,21.716,0,0,0-6.36,15.356V145.38Z" fill="#fff"/>
      <path id="Caminho_27" data-name="Caminho 27" d="M135.521,102.72h0a21.716,21.716,0,0,0-6.36,15.4v38.707h12.721V118.121A21.943,21.943,0,0,0,135.521,102.72Z" fill="none" stroke="#4550e5" stroke-linecap="round" stroke-linejoin="round" stroke-width="4.543"/>
      <path id="Caminho_28" data-name="Caminho 28" d="M160.963,102.72h0a21.716,21.716,0,0,0-6.5,15.4v38.707h12.721V118.121A21.943,21.943,0,0,0,160.963,102.72Z" fill="#d6daff"/>
      <path id="Caminho_29" data-name="Caminho 29" d="M167.323,124.073v-5.951a21.943,21.943,0,0,0-6.36-15.356h0a21.716,21.716,0,0,0-6.5,15.356V145.38Z" fill="#fff"/>
      <path id="Caminho_30" data-name="Caminho 30" d="M160.963,102.72h0a21.716,21.716,0,0,0-6.5,15.4v38.707h12.721V118.121A21.943,21.943,0,0,0,160.963,102.72Z" fill="none" stroke="#4550e5" stroke-linecap="round" stroke-linejoin="round" stroke-width="4.543"/>
      <path id="Caminho_31" data-name="Caminho 31" d="M256.369,102.72h0a21.716,21.716,0,0,0-6.5,15.4v38.707h12.721V118.121a21.943,21.943,0,0,0-6.224-15.4Z" fill="#d6daff"/>
      <path id="Caminho_32" data-name="Caminho 32" d="M262.729,124.073v-5.951a21.943,21.943,0,0,0-6.36-15.356h0a21.716,21.716,0,0,0-6.5,15.356V145.38Z" fill="#fff"/>
      <path id="Caminho_33" data-name="Caminho 33" d="M256.369,102.72h0a21.716,21.716,0,0,0-6.5,15.4v38.707h12.721V118.121a21.943,21.943,0,0,0-6.224-15.4Z" fill="none" stroke="#4550e5" stroke-linecap="round" stroke-linejoin="round" stroke-width="4.543"/>
      <path id="Caminho_34" data-name="Caminho 34" d="M281.674,102.72h0a21.716,21.716,0,0,0-6.224,15.4v38.707h12.721V118.121A21.944,21.944,0,0,0,281.674,102.72Z" fill="#d6daff"/>
      <path id="Caminho_35" data-name="Caminho 35" d="M288.171,124.073v-5.951a21.944,21.944,0,0,0-6.5-15.4h0a21.716,21.716,0,0,0-6.224,15.4V145.38Z" fill="#fff"/>
      <path id="Caminho_36" data-name="Caminho 36" d="M281.674,102.72h0a21.716,21.716,0,0,0-6.224,15.4v38.707h12.721V118.121A21.944,21.944,0,0,0,281.674,102.72Z" fill="none" stroke="#4550e5" stroke-linecap="round" stroke-linejoin="round" stroke-width="4.543"/>
      <line id="Linha_26" data-name="Linha 26" x2="63.604" transform="translate(116.44 89.999)" fill="none" stroke="#4550e5" stroke-linecap="round" stroke-linejoin="round" stroke-width="4.543"/>
      <line id="Linha_27" data-name="Linha 27" x2="63.604" transform="translate(116.44 77.279)" fill="none" stroke="#4550e5" stroke-linecap="round" stroke-linejoin="round" stroke-width="4.543"/>
      <line id="Linha_28" data-name="Linha 28" x2="63.604" transform="translate(237.288 89.999)" fill="none" stroke="#4550e5" stroke-linecap="round" stroke-linejoin="round" stroke-width="4.543"/>
      <line id="Linha_29" data-name="Linha 29" x2="63.604" transform="translate(237.288 77.279)" fill="none" stroke="#4550e5" stroke-linecap="round" stroke-linejoin="round" stroke-width="4.543"/>
      <line id="Linha_30" data-name="Linha 30" x2="184.451" transform="translate(116.44 182.225)" fill="none" stroke="#4550e5" stroke-linecap="round" stroke-linejoin="round" stroke-width="4.543"/>
      <line id="Linha_31" data-name="Linha 31" x2="209.893" transform="translate(103.72 239.468)" fill="none" stroke="#4550e5" stroke-linecap="round" stroke-linejoin="round" stroke-width="4.543"/>
      <line id="Linha_32" data-name="Linha 32" x1="15.901" transform="translate(103.72 283.991)" fill="none" stroke="#4550e5" stroke-linecap="round" stroke-linejoin="round" stroke-width="4.543"/>
      <rect id="Retângulo_5" data-name="Retângulo 5" width="57.243" height="12.721" transform="translate(119.621 77.279)" stroke-width="4.543" stroke="#4550e5" stroke-linecap="round" stroke-linejoin="round" fill="#d6daff"/>
      <rect id="Retângulo_6" data-name="Retângulo 6" width="57.243" height="12.721" transform="translate(240.468 77.279)" stroke-width="4.543" stroke="#4550e5" stroke-linecap="round" stroke-linejoin="round" fill="#d6daff"/>
      <line id="Linha_33" data-name="Linha 33" y2="31.802" transform="translate(208.666 201.306)" fill="none" stroke="#4550e5" stroke-linecap="round" stroke-linejoin="round" stroke-width="4.543"/>
      <line id="Linha_34" data-name="Linha 34" x2="31.802" transform="translate(192.765 217.207)" fill="none" stroke="#4550e5" stroke-linecap="round" stroke-linejoin="round" stroke-width="4.543"/>
      <rect id="Retângulo_7" data-name="Retângulo 7" width="25.442" height="19.081" transform="translate(135.521 220.387)" fill="#d6daff"/>
      <path id="Caminho_37" data-name="Caminho 37" d="M135.521,220.387v19.081h9.541l11.449-19.081Z" fill="#fff"/>
      <rect id="Retângulo_8" data-name="Retângulo 8" width="25.442" height="19.081" transform="translate(135.521 220.387)" stroke-width="4.543" stroke="#4550e5" stroke-linecap="round" stroke-linejoin="round" fill="none"/>
      <rect id="Retângulo_9" data-name="Retângulo 9" width="25.442" height="19.081" transform="translate(256.369 220.387)" fill="#d6daff"/>
      <path id="Caminho_38" data-name="Caminho 38" d="M256.369,220.387v19.081h9.541l11.449-19.081Z" fill="#fff"/>
      <rect id="Retângulo_10" data-name="Retângulo 10" width="25.442" height="19.081" transform="translate(256.369 220.387)" stroke-width="4.543" stroke="#4550e5" stroke-linecap="round" stroke-linejoin="round" fill="none"/>
      <rect id="Retângulo_11" data-name="Retângulo 11" width="25.442" height="19.081" transform="translate(135.521 299.892)" fill="#d6daff"/>
      <path id="Caminho_39" data-name="Caminho 39" d="M135.521,299.892v19.081h9.541l11.449-19.081Z" fill="#fff"/>
      <rect id="Retângulo_12" data-name="Retângulo 12" width="25.442" height="19.081" transform="translate(135.521 299.892)" stroke-width="4.543" stroke="#4550e5" stroke-linecap="round" stroke-linejoin="round" fill="none"/>
      <rect id="Retângulo_13" data-name="Retângulo 13" width="25.442" height="19.081" transform="translate(256.369 299.892)" fill="#d6daff"/>
      <path id="Caminho_40" data-name="Caminho 40" d="M256.369,299.892v19.081h9.541l11.449-19.081Z" fill="#fff"/>
      <rect id="Retângulo_14" data-name="Retângulo 14" width="25.442" height="19.081" transform="translate(256.369 299.892)" stroke-width="4.543" stroke="#4550e5" stroke-linecap="round" stroke-linejoin="round" fill="none"/>
      <path id="Caminho_41" data-name="Caminho 41" d="M358.907,282.9c0,10.54-3.771,19.672-8,19.672s-8-9.086-8-19.672,8-38.3,8-38.3S358.907,272.315,358.907,282.9Z" fill="#d6daff" stroke="#4550e5" stroke-linecap="round" stroke-linejoin="round" stroke-width="4.543"/>
      <line id="Linha_35" data-name="Linha 35" y2="16.401" transform="translate(351.047 302.572)" fill="none" stroke="#4550e5" stroke-linecap="round" stroke-linejoin="round" stroke-width="4.543"/>
      <path id="Caminho_42" data-name="Caminho 42" d="M78.142,254.415a12.448,12.448,0,0,1-24.851,0" fill="none" stroke="#4550e5" stroke-linecap="round" stroke-linejoin="round" stroke-width="4.543"/>
      <path id="Caminho_43" data-name="Caminho 43" d="M57.925,249.872H48.839a2.408,2.408,0,0,1-1.454-.545,1.908,1.908,0,0,0,0,.727l.909,6.769a2.317,2.317,0,0,0,2.272,1.954h5.861a2.226,2.226,0,0,0,2.226-1.954l.909-6.769a1.908,1.908,0,0,0,0-.727,2.181,2.181,0,0,1-1.636.545Z" fill="#fff" stroke="#4550e5" stroke-linecap="round" stroke-linejoin="round" stroke-width="4.543"/>
      <path id="Caminho_44" data-name="Caminho 44" d="M53.291,240.059a6.906,6.906,0,0,0-6.86,6.906c0,2,1,2.817,2.272,2.817h9.086c1.272,0,2.272-.818,2.272-2.817a6.906,6.906,0,0,0-6.771-6.906Z" fill="#d6daff" stroke="#4550e5" stroke-linecap="round" stroke-linejoin="round" stroke-width="4.543"/>
      <path id="Caminho_45" data-name="Caminho 45" d="M82.776,249.872H73.69a2.181,2.181,0,0,1-1.408-.545,3.544,3.544,0,0,0,0,.727l.909,6.769a2.317,2.317,0,0,0,2.272,1.954h5.861a2.226,2.226,0,0,0,2.226-1.954l.727-6.951a3.543,3.543,0,0,0,0-.727,2.181,2.181,0,0,1-1.5.727Z" fill="#fff" stroke="#4550e5" stroke-linecap="round" stroke-linejoin="round" stroke-width="4.543"/>
      <path id="Caminho_46" data-name="Caminho 46" d="M78.142,240.059a6.906,6.906,0,0,0-6.86,6.906c0,2,1,2.817,2.272,2.817h9.086c1.272,0,2.272-.818,2.272-2.817a6.906,6.906,0,0,0-6.771-6.906Z" fill="#d6daff" stroke="#4550e5" stroke-linecap="round" stroke-linejoin="round" stroke-width="4.543"/>
      <line id="Linha_36" data-name="Linha 36" y2="52.201" transform="translate(65.739 266.772)" fill="none" stroke="#4550e5" stroke-linecap="round" stroke-linejoin="round" stroke-width="4.543"/>
      <ellipse id="Elipse_3" data-name="Elipse 3" cx="61.332" cy="6.815" rx="61.332" ry="6.815" transform="translate(88.455 378.533)" fill="#f0f2ff"/>
      <path id="Caminho_47" data-name="Caminho 47" d="M173.547,311.84v15.992H97.586a4.543,4.543,0,0,0-4.543,4.543V369.72a4.543,4.543,0,0,0,3.862,4.543l10.858,1.681h91.771a4.543,4.543,0,0,0,4.543-4.543V336.191a68.146,68.146,0,0,0-.681-9.631l-1.636-11.312a9.086,9.086,0,0,0-9.086-7.814H178.091A4.543,4.543,0,0,0,173.547,311.84Z" fill="#fff" stroke="#4550e5" stroke-linecap="round" stroke-linejoin="round" stroke-width="4.543"/>
      <path id="Caminho_48" data-name="Caminho 48" d="M126.435,375.9a8.314,8.314,0,1,1-8.314-8.314,8.314,8.314,0,0,1,8.314,8.314Z" fill="#d6daff" stroke="#4550e5" stroke-linecap="round" stroke-linejoin="round" stroke-width="4.543"/>
      <path id="Caminho_49" data-name="Caminho 49" d="M185.95,375.9a8.314,8.314,0,1,1-8.314-8.314A8.314,8.314,0,0,1,185.95,375.9Z" fill="#d6daff" stroke="#4550e5" stroke-linecap="round" stroke-linejoin="round" stroke-width="4.543"/>
      <rect id="Retângulo_15" data-name="Retângulo 15" width="15.901" height="30.121" transform="translate(137.475 345.777)" stroke-width="4.543" stroke="#4550e5" stroke-linecap="round" stroke-linejoin="round" fill="#d6daff"/>
      <rect id="Retângulo_16" data-name="Retângulo 16" width="25.078" height="13.811" transform="translate(103.22 345.777)" fill="#d6daff"/>
      <rect id="Retângulo_17" data-name="Retângulo 17" width="25.078" height="13.811" transform="translate(103.22 345.777)" stroke-width="4.543" stroke="#4550e5" stroke-linecap="round" stroke-linejoin="round" fill="none"/>
      <rect id="Retângulo_18" data-name="Retângulo 18" width="15.901" height="13.811" transform="translate(162.371 345.777)" fill="#d6daff"/>
      <rect id="Retângulo_19" data-name="Retângulo 19" width="15.901" height="13.811" transform="translate(162.371 345.777)" stroke-width="4.543" stroke="#4550e5" stroke-linecap="round" stroke-linejoin="round" fill="none"/>
      <rect id="Retângulo_20" data-name="Retângulo 20" width="15.901" height="13.811" transform="translate(188.176 345.777)" fill="#d6daff"/>
      <rect id="Retângulo_21" data-name="Retângulo 21" width="15.901" height="13.811" transform="translate(188.176 345.777)" stroke-width="4.543" stroke="#4550e5" stroke-linecap="round" stroke-linejoin="round" fill="none"/>
      <path id="Caminho_50" data-name="Caminho 50" d="M187.9,328.15h15.674l-1.59-11.267H187.9a4.543,4.543,0,0,0-4.543,4.543V323.7a4.543,4.543,0,0,0,4.543,4.452Z" fill="#d6daff"/>
      <path id="Caminho_51" data-name="Caminho 51" d="M187.9,328.15h15.674l-1.59-11.267H187.9a4.543,4.543,0,0,0-4.543,4.543V323.7a4.543,4.543,0,0,0,4.543,4.452Z" fill="none" stroke="#4550e5" stroke-linecap="round" stroke-linejoin="round" stroke-width="4.543"/>
      <path id="Caminho_52" data-name="Caminho 52" d="M103.765,318.973h69.782v8.859H99.222v-4.316A4.543,4.543,0,0,1,103.765,318.973Z" fill="none" stroke="#4550e5" stroke-linecap="round" stroke-linejoin="round" stroke-width="4.543"/>
      <rect id="Retângulo_22" data-name="Retângulo 22" width="10.585" height="8.859" transform="translate(111.897 318.973)" stroke-width="4.543" stroke="#4550e5" stroke-linecap="round" stroke-linejoin="round" fill="none"/>
      <rect id="Retângulo_23" data-name="Retângulo 23" width="10.585" height="8.859" transform="translate(132.523 318.973)" stroke-width="4.543" stroke="#4550e5" stroke-linecap="round" stroke-linejoin="round" fill="none"/>
      <rect id="Retângulo_24" data-name="Retângulo 24" width="10.585" height="8.859" transform="translate(153.376 318.973)" stroke-width="4.543" stroke="#4550e5" stroke-linecap="round" stroke-linejoin="round" fill="none"/>
      <rect id="Retângulo_25" data-name="Retângulo 25" width="15.901" height="13.811" transform="translate(137.475 345.777)" stroke-width="4.543" stroke="#4550e5" stroke-linecap="round" stroke-linejoin="round" fill="#d6daff"/>
      <line id="Linha_37" data-name="Linha 37" x2="90.635" transform="translate(104.083 336.827)" fill="none" stroke="#4550e5" stroke-linecap="round" stroke-linejoin="round" stroke-width="4.543"/>
    </g>
  </g>
</svg>
